<?xml version="1.0" standalone="no"?>
<!DOCTYPE svg PUBLIC "-//W3C//DTD SVG 20010904//EN"
 "http://www.w3.org/TR/2001/REC-SVG-20010904/DTD/svg10.dtd">
<svg version="1.0" xmlns="http://www.w3.org/2000/svg"
 width="1024.000000pt" height="1024.000000pt" viewBox="0 0 1024.000000 1024.000000"
 preserveAspectRatio="xMidYMid meet">

<g transform="translate(0.000000,1024.000000) scale(0.100000,-0.100000)"
fill="#000000" stroke="none">
<path d="M2572 7357 c-137 -139 -318 -361 -369 -454 -65 -116 -113 -170 -166
-184 -95 -25 -303 -155 -436 -274 -105 -92 -162 -145 -210 -194 -61 -64 -150
-166 -171 -197 -8 -12 -33 -48 -56 -81 -63 -92 -159 -287 -199 -408 -29 -87
-38 -131 -42 -210 -3 -55 -3 -98 0 -95 3 3 32 57 65 121 91 178 244 396 401
574 66 73 305 311 387 383 90 80 114 96 249 167 127 67 167 105 214 201 18 38
49 93 68 123 38 59 219 251 238 251 6 0 18 -44 29 -107 15 -86 17 -133 11
-248 -5 -103 -4 -149 5 -165 7 -13 50 -40 107 -66 188 -88 343 -209 436 -342
69 -98 77 -113 158 -316 78 -192 96 -222 258 -425 234 -292 401 -612 418 -803
l6 -67 -54 -54 c-84 -84 -209 -136 -326 -137 -62 0 -73 8 -137 108 -127 198
-255 282 -537 352 -194 48 -301 97 -367 169 -36 39 -107 150 -136 212 -48 100
-65 110 -94 52 -40 -80 -58 -249 -43 -418 16 -200 56 -331 181 -606 134 -292
176 -404 219 -589 31 -135 41 -253 30 -371 -9 -104 -5 -179 11 -179 15 0 80
113 98 170 25 81 22 284 -7 415 -43 196 -98 355 -244 695 -82 193 -121 307
-137 402 -13 81 -13 108 1 108 6 0 48 -27 94 -59 100 -71 143 -94 210 -110
146 -35 309 -87 381 -123 103 -51 171 -117 259 -252 76 -117 101 -135 202
-144 86 -7 173 12 268 58 220 106 298 298 225 554 -31 110 -107 272 -190 406
-29 47 -60 98 -69 114 -14 26 -78 113 -262 356 -63 84 -90 135 -145 266 -52
126 -76 171 -150 282 -107 158 -252 284 -477 411 -50 29 -57 36 -50 54 4 12 8
90 7 172 0 126 -7 185 -38 364 -20 118 -38 216 -39 218 -2 1 -40 -34 -85 -80z"/>
<path d="M6100 5736 c-114 -40 -172 -76 -249 -155 -108 -112 -161 -241 -168
-406 -8 -183 35 -323 141 -457 106 -133 320 -230 471 -213 245 28 447 208 516
460 18 68 21 97 16 200 -6 133 -23 195 -82 299 -134 235 -414 353 -645 272z
m301 -234 c153 -74 239 -253 209 -433 -7 -40 -27 -100 -47 -141 -29 -58 -46
-78 -101 -118 -72 -53 -122 -70 -205 -70 -155 0 -285 99 -338 257 -18 56 -21
81 -17 167 4 84 9 111 33 160 44 93 137 173 230 197 57 15 187 5 236 -19z"/>
<path d="M4490 5135 l0 -617 268 5 c212 3 279 8 326 21 227 66 372 224 421
461 58 281 -63 554 -295 668 -126 61 -174 69 -462 74 l-258 5 0 -617z m544
360 c120 -32 220 -124 251 -232 25 -87 18 -221 -17 -295 -69 -147 -192 -208
-424 -208 l-121 0 -6 83 c-9 115 -9 662 1 672 11 12 251 -3 316 -20z"/>
<path d="M7035 5135 l0 -615 115 0 115 0 -3 405 c-3 283 -1 405 7 405 12 0 28
-29 91 -170 26 -58 95 -212 154 -343 58 -131 106 -242 106 -247 0 -26 18 -3
45 58 122 277 326 712 334 712 3 0 5 -184 3 -410 l-3 -410 118 0 118 0 -3 615
-2 615 -141 0 -140 0 -38 -82 c-56 -122 -88 -192 -136 -298 -23 -52 -59 -131
-80 -175 -20 -44 -41 -90 -46 -102 -13 -34 -23 -28 -46 25 -54 122 -267 571
-285 600 l-20 32 -131 0 -132 0 0 -615z"/>
<path d="M8498 5733 c-2 -9 -2 -286 0 -615 l2 -598 405 0 405 0 0 120 0 120
-295 0 -295 0 0 135 0 135 260 0 260 0 0 105 0 105 -260 0 -260 0 0 135 0 135
290 0 290 0 0 120 0 120 -399 0 c-366 0 -400 -1 -403 -17z"/>
<path d="M1419 5592 c-75 -97 -130 -198 -163 -302 -72 -224 -100 -380 -100
-565 0 -170 19 -254 91 -401 84 -169 114 -209 301 -389 279 -269 399 -392 553
-567 185 -210 238 -285 313 -438 59 -121 61 -124 64 -86 9 99 -51 280 -140
426 -106 175 -201 281 -558 626 -253 244 -322 330 -406 508 -128 272 -112 473
82 1015 21 60 25 88 22 138 -2 35 -8 67 -13 72 -6 6 -24 -9 -46 -37z"/>
</g>
</svg>
